# xmcd
#
# Track frame offsets:
#	150
#	8181
#	21662
#	45283
#	60429
#	75195
#	87718
#	99302
#	112408
#	125319
#	135335
#	147098
#	164006
#	170927
#	184416
#	198707
#	209003
#	224604
#	233963
#	243361
#
# Disc length: 3399 seconds
#
# Revision: 0
# Processed by: cddbd v1.4PL0 Copyright (c) Steve Scherf et al.
# Submitted via: MusicWizard 6.0.0
#
DISCID=2c0d4514
DTITLE=Various Artist - Great Country Hits CD 11
DYEAR=1900
DGENRE=Country
TTITLE0=Cash, Johnny - Hey Good Looking
TTITLE1=Do You Love As Good As You Look - Bellamy Brothers
TTITLE2=Carmen, Phil - Call Me The Breeze
TTITLE3=Nelson, Willie - Face Of The Fighter
TTITLE4=Dancing Cowboys - Bellamy Brothers
TTITLE5=Anderson, Lynn - Stand By Your Man
TTITLE6=Cash, Johnny - Big River
TTITLE7=Gilley, Mickey - C.C. Rider
TTITLE8=Anderson, Lynn - Top Of The World
TTITLE9=Nelson, Willie - Broken Promisis
TTITLE10=Rogers, Kenny - Me And Bobby McGee
TTITLE11=Carmen and Thompson - Indian Queens
TTITLE12=Willie Boxcar - I Saw The Light
TTITLE13=Belew, Carl - Welcome Back To My World
TTITLE14=I'd Rather Be Lonely - B. J. Thomas
TTITLE15=Williams, Don - Take My Hand For A While
TTITLE16=Rogers, Kenny - For The Good Times
TTITLE17=Monroe, Bill - One Silver Dollar
TTITLE18=Mr. Lovemaker - Johnny Paycheck
TTITLE19=Lane, Frankie - Mule Train
EXTD=
EXTT0=
EXTT1=
EXTT2=
EXTT3=
EXTT4=
EXTT5=
EXTT6=
EXTT7=
EXTT8=
EXTT9=
EXTT10=
EXTT11=
EXTT12=
EXTT13=
EXTT14=
EXTT15=
EXTT16=
EXTT17=
EXTT18=
EXTT19=
PLAYORDER=
